<svg xmlns="http://www.w3.org/2000/svg" xmlns:xlink="http://www.w3.org/1999/xlink" xmlns:xodm="http://www.corel.com/coreldraw/odm/2003" xml:space="preserve" version="1.1" shape-rendering="geometricPrecision" text-rendering="geometricPrecision" image-rendering="optimizeQuality" fill-rule="evenodd" clip-rule="evenodd" viewBox="0 0 40 50" x="0px" y="0px"><g><path fill="black" d="M10.4 26.76c0.3,-0.29 0.68,-0.5 1.15,-0.62 -0.47,-0.12 -0.85,-0.32 -1.15,-0.62 -0.31,-0.3 -0.52,-0.69 -0.64,-1.18 -0.11,0.46 -0.31,0.84 -0.59,1.14 0,0 -0.01,0 -0.01,0.01 -0.01,0.01 -0.02,0.02 -0.03,0.03 -0.3,0.3 -0.68,0.5 -1.15,0.62 0.47,0.12 0.85,0.33 1.15,0.62 0.3,0.3 0.51,0.7 0.63,1.18 0.12,-0.48 0.33,-0.88 0.64,-1.18zm18.58 -12.9c0.47,0.12 0.85,0.32 1.15,0.62 0.3,0.3 0.52,0.69 0.64,1.18 0.11,-0.44 0.29,-0.81 0.56,-1.1 0,0 0,0 0,-0.01 0.02,-0.02 0.05,-0.05 0.07,-0.07 0.3,-0.3 0.68,-0.5 1.15,-0.62 -0.47,-0.12 -0.85,-0.33 -1.15,-0.62 -0.3,-0.3 -0.51,-0.7 -0.63,-1.18 -0.12,0.48 -0.34,0.88 -0.64,1.18 -0.3,0.29 -0.68,0.5 -1.15,0.62zm-20.72 11.94c0.23,-0.09 0.44,-0.21 0.61,-0.37 -0.44,-0.21 -0.85,-0.45 -1.21,-0.7 -0.4,-0.28 -0.76,-0.58 -1.05,-0.9 -0.32,-0.36 -0.57,-0.74 -0.75,-1.14 -0.16,-0.4 -0.25,-0.82 -0.25,-1.24 0,-0.23 0.02,-0.46 0.07,-0.7 0.05,-0.23 0.12,-0.47 0.22,-0.71 0.39,-0.97 1.15,-1.89 2.18,-2.73 1.07,-0.88 2.43,-1.66 4,-2.33 1.58,-0.67 3.37,-1.22 5.26,-1.59 1.82,-0.36 3.74,-0.56 5.67,-0.57 1.14,0 2.22,0.07 3.22,0.2 1.03,0.13 1.98,0.32 2.84,0.57 0.3,-0.09 0.56,-0.23 0.77,-0.41 -0.92,-0.3 -1.95,-0.54 -3.08,-0.7 -1.16,-0.18 -2.42,-0.27 -3.75,-0.26 -1.97,0 -3.93,0.2 -5.79,0.57 -1.94,0.38 -3.76,0.94 -5.38,1.63 -1.65,0.7 -3.08,1.54 -4.21,2.47 -1.08,0.9 -1.87,1.89 -2.29,2.92 -0.12,0.28 -0.2,0.55 -0.26,0.82 -0.05,0.28 -0.08,0.55 -0.08,0.82 0,0.5 0.1,0.99 0.29,1.45 0.2,0.48 0.49,0.92 0.87,1.34 0.27,0.3 0.59,0.58 0.94,0.84 0.35,0.26 0.74,0.5 1.16,0.72zm5.88 1.02c-0.91,-0.1 -1.77,-0.25 -2.56,-0.45 -0.33,0.09 -0.61,0.23 -0.85,0.41 0.87,0.25 1.81,0.45 2.83,0.58 1.07,0.14 2.22,0.22 3.43,0.21 1.97,0 3.93,-0.21 5.79,-0.57 1.94,-0.38 3.76,-0.94 5.38,-1.63 1.65,-0.7 3.08,-1.54 4.21,-2.48 1.08,-0.89 1.87,-1.88 2.29,-2.91 0.12,-0.28 0.2,-0.55 0.26,-0.82 0.05,-0.28 0.08,-0.55 0.08,-0.82 0,-0.5 -0.1,-0.99 -0.29,-1.45 -0.2,-0.48 -0.49,-0.92 -0.87,-1.34 -0.23,-0.25 -0.48,-0.48 -0.76,-0.71 -0.28,-0.21 -0.57,-0.42 -0.9,-0.61 -0.21,0.1 -0.41,0.22 -0.57,0.38 0.34,0.18 0.65,0.38 0.93,0.59 0.32,0.24 0.6,0.49 0.85,0.76 0.32,0.36 0.57,0.74 0.75,1.14 0.16,0.4 0.25,0.82 0.25,1.24 0,0.23 -0.02,0.46 -0.07,0.7 -0.05,0.23 -0.12,0.47 -0.22,0.71 -0.39,0.97 -1.15,1.89 -2.18,2.73 -1.07,0.87 -2.43,1.66 -4,2.33 -1.58,0.67 -3.37,1.22 -5.26,1.59 -1.82,0.36 -3.74,0.56 -5.67,0.57 -1,0 -1.95,-0.05 -2.85,-0.15z"/></g></svg>
